<svg width="64" height="64" viewBox="0 0 64 64" fill="none" xmlns="http://www.w3.org/2000/svg">
<g clip-path="url(#clip0_223_1489)">
<mask id="mask0_223_1489" style="mask-type:luminance" maskUnits="userSpaceOnUse" x="0" y="0" width="64" height="64">
<path d="M64 0H0V64H64V0Z" fill="white"/>
</mask>
<g mask="url(#mask0_223_1489)">
<mask id="mask1_223_1489" style="mask-type:luminance" maskUnits="userSpaceOnUse" x="-6" y="-6" width="76" height="76">
<path d="M70 -6H-6V70H70V-6Z" fill="white"/>
</mask>
<g mask="url(#mask1_223_1489)">
<path d="M70 -6H-6V70H70V-6Z" fill="white"/>
<path d="M70 -6H-6V70H70V-6Z" fill="#F4F9FF"/>
<path d="M17.3359 16.2641C14.4129 18.9923 13.877 19.918 13.877 22.0128C13.877 24.9846 18.6026 32.9744 23.5718 38.3333C29.3693 44.618 39.8436 51.0974 42.9616 50.318C44.4718 49.9282 49.4898 45.3974 50.0257 43.9359C50.5616 42.4744 49.7334 40.7692 47.2 38.1872C42.8641 33.7051 41.6462 33.6564 37.6513 37.7487L35.2641 40.2333L32.9744 39.0641C30.1 37.6026 26.7385 34.2897 25.1795 31.3667L23.9616 29.0769L26.2026 26.7872C30.4411 22.4026 30.4411 21.2821 25.9103 16.9462C21.9154 13.0974 20.7949 13.0487 17.3359 16.2641ZM25.3257 18.3103C26.8846 19.918 28.1026 21.5744 28.1026 22.0128C28.1026 22.4513 26.7872 24.2051 25.1308 25.9103L22.159 29.0282L23.5231 31.5615C25.3744 34.9231 29.2718 38.7718 32.5846 40.5256L35.3616 41.9385L38.4795 38.918C40.818 36.6769 41.8898 35.9949 42.5718 36.1897C43.059 36.3846 44.618 37.6513 46.0308 39.0154C49.3923 42.2795 49.3923 43.2539 45.9334 46.5667C44.4718 47.9308 42.8154 49.0513 42.2795 49.0513C40.8667 49.0513 34.3872 45.5923 30.6359 42.8154C25.1795 38.7231 21.2334 34.1923 17.5795 27.7128C14.6564 22.5974 14.6564 21.0872 17.677 17.8718C20.7949 14.559 21.818 14.6077 25.3257 18.3103Z" fill="#0C2A6A"/>
<path fill-rule="evenodd" clip-rule="evenodd" d="M17.0041 15.9071C15.5457 17.2683 14.6314 18.2248 14.0922 19.1256C13.5326 20.0605 13.3896 20.9116 13.3896 22.0126C13.3896 22.8568 13.7176 23.9879 14.2431 25.2501C14.775 26.5278 15.5327 27.9935 16.4418 29.5263C18.2597 32.5908 20.7034 35.9563 23.2141 38.6639C26.1488 41.8451 30.2532 45.0629 34.0153 47.3889C35.897 48.5523 37.7064 49.5009 39.2529 50.111C40.026 50.416 40.7437 50.6405 41.3788 50.7627C42.0066 50.8838 42.5915 50.9125 43.0797 50.7904L43.0832 50.7895C43.3371 50.7241 43.6264 50.5839 43.9212 50.413C44.2229 50.238 44.5595 50.0131 44.9136 49.7557C45.6219 49.2409 46.4211 48.5808 47.1856 47.8902C47.9501 47.1997 48.6876 46.4719 49.2712 45.8195C49.5628 45.4936 49.8204 45.1817 50.0248 44.8992C50.2243 44.6236 50.3927 44.3497 50.4831 44.1035C50.8083 43.2163 50.6997 42.2842 50.2011 41.2671C49.7101 40.2655 48.827 39.1498 47.549 37.847C46.463 36.7246 45.5494 35.8552 44.7268 35.258C43.9024 34.6594 43.1267 34.3022 42.3197 34.2658C41.506 34.2289 40.7411 34.5212 39.9468 35.0563C39.1588 35.5869 38.3043 36.3821 37.3027 37.4083L37.2999 37.411L35.1634 39.6348L33.1959 38.63C30.4125 37.2148 27.1223 33.9741 25.6093 31.1372L24.559 29.1628L26.5528 27.1257C27.6137 26.0281 28.4358 25.1086 28.9877 24.2792C29.5423 23.4456 29.8538 22.6595 29.8318 21.8353C29.8098 21.0123 29.4577 20.2334 28.857 19.4093C28.2586 18.5882 27.3816 17.6798 26.2473 16.5943C25.2457 15.6294 24.403 14.8815 23.6475 14.3622C22.8905 13.8417 22.1845 13.5249 21.4587 13.4701C20.7238 13.4148 20.0352 13.6327 19.3247 14.0537C18.6232 14.4693 17.8728 15.0996 17.0041 15.9071ZM25.9102 16.946C30.4409 21.2819 30.4409 22.4024 26.2025 26.787L23.9614 29.0767L25.1794 31.3665C26.7384 34.2895 30.1 37.6024 32.9743 39.0639L35.264 40.2331L37.6512 37.7485C41.6461 33.6562 42.8641 33.7049 47.2 38.187C49.7332 40.769 50.5615 42.4742 50.0256 43.9357C49.4897 45.3972 44.4717 49.928 42.9614 50.3178C39.8435 51.0972 29.3691 44.6178 23.5717 38.3331C18.6025 32.9742 13.8768 24.9844 13.8768 22.0126C13.8768 19.9178 14.4127 18.9921 17.3358 16.2639C20.7948 13.0485 21.9153 13.0972 25.9102 16.946ZM24.9758 18.6492C25.7427 19.4401 26.4229 20.2402 26.9081 20.891C27.1513 21.2173 27.3397 21.4985 27.465 21.7172C27.5278 21.827 27.57 21.9129 27.5951 21.9754C27.6008 21.9895 27.6051 22.001 27.6082 22.0102C27.6047 22.0198 27.6 22.0321 27.5937 22.0473C27.566 22.113 27.5198 22.2035 27.4516 22.3192C27.3155 22.5496 27.1114 22.8468 26.8496 23.1919C26.3273 23.8805 25.5976 24.7303 24.7813 25.5707L24.7781 25.574L21.5624 28.9478L23.0962 31.7965C24.9925 35.2395 28.9584 39.157 32.3567 40.956L32.3637 40.9597L35.4506 42.5303L38.8166 39.2695C38.8169 39.2692 38.8173 39.2689 38.8176 39.2686C39.9837 38.1511 40.8091 37.447 41.4152 37.0468C42.0046 36.6575 42.2833 36.6262 42.4146 36.6524C42.4872 36.6867 42.6271 36.7703 42.8377 36.9192C43.0625 37.0782 43.3379 37.2901 43.6462 37.5415C44.2622 38.0439 44.9949 38.6924 45.6921 39.3654C46.5293 40.1783 47.1301 40.8236 47.5201 41.3844C47.9072 41.9412 48.057 42.3735 48.0527 42.7671C48.048 43.1619 47.8872 43.5996 47.4838 44.1651C47.0786 44.7332 46.4591 45.3882 45.5985 46.2125C44.885 46.8783 44.126 47.4825 43.4855 47.9173C43.1644 48.1354 42.8811 48.3053 42.6535 48.4187C42.5397 48.4754 42.4472 48.5144 42.3758 48.5384C42.3075 48.5613 42.278 48.5636 42.278 48.5639C42.278 48.5639 42.2785 48.5639 42.2794 48.5639C42.1805 48.5639 41.9836 48.5293 41.6728 48.4321C41.3738 48.3386 41.0061 48.1992 40.5823 48.019C39.7351 47.6588 38.6894 47.1467 37.5644 46.5449C35.3137 45.3409 32.778 43.7947 30.9268 42.4245C25.5285 38.3755 21.6264 33.8975 18.0037 27.4733L18.0025 27.471C16.5325 24.8987 15.8755 23.3522 15.8864 22.0839C15.897 20.8634 16.5326 19.8013 18.0319 18.2052C18.8078 17.3809 19.4263 16.7957 19.9693 16.4239C20.5053 16.0569 20.9294 15.9241 21.3278 15.9466C21.7349 15.9694 22.1976 16.1587 22.7987 16.6049C23.4005 17.0516 24.0979 17.7225 24.9719 18.6451L24.9758 18.6492ZM17.6768 17.8716C14.6563 21.087 14.6563 22.5972 17.5794 27.7126C21.2332 34.1921 25.1794 38.7229 30.6358 42.8152C34.3871 45.5921 40.8666 49.0511 42.2794 49.0511C42.8153 49.0511 44.4718 47.9306 45.9333 46.5665C49.3923 43.2537 49.3923 42.2793 46.0308 39.0152C44.618 37.6511 43.059 36.3844 42.5718 36.1895C41.8897 35.9947 40.818 36.6767 38.4795 38.9178L35.3615 41.9383L32.5845 40.5254C29.2717 38.7716 25.3743 34.9229 23.523 31.5613L22.1589 29.028L25.1307 25.9101C26.7871 24.2049 28.1025 22.4511 28.1025 22.0126C28.1025 21.5742 26.8845 19.9178 25.3255 18.3101C21.8179 14.6075 20.7948 14.5588 17.6768 17.8716Z" fill="#0C2A6A"/>
</g>
</g>
</g>
<defs>
<clipPath id="clip0_223_1489">
<rect width="64" height="64" rx="32" fill="white"/>
</clipPath>
</defs>
</svg>
