<svg width="64" height="64" viewBox="0 0 64 64" fill="none" xmlns="http://www.w3.org/2000/svg">
<g clip-path="url(#clip0_223_1479)">
<mask id="mask0_223_1479" style="mask-type:luminance" maskUnits="userSpaceOnUse" x="0" y="0" width="64" height="64">
<path d="M64 0H0V64H64V0Z" fill="white"/>
</mask>
<g mask="url(#mask0_223_1479)">
<path d="M64 0H0V64H64V0Z" fill="#F4F9FF"/>
<path d="M64 0H0V64H64V0Z" fill="#F4F9FF"/>
<path d="M64 32C64 49.6731 49.6731 64 32 64C14.3269 64 0 49.6731 0 32C0 14.3269 14.3269 0 32 0C49.6731 0 64 14.3269 64 32Z" fill="#F4F9FF"/>
<path d="M14.359 16.8999C13.4527 16.8999 12.718 17.6345 12.718 18.5409V44.7973C12.718 45.7035 13.4527 46.4383 14.359 46.4383H48.8206C49.7269 46.4383 50.4616 45.7035 50.4616 44.7973V18.5409C50.4616 17.6345 49.7269 16.8999 48.8206 16.8999H14.359ZM13.7964 18.8144C13.7964 18.3612 14.1638 17.9938 14.6169 17.9938H48.5627C49.0159 17.9938 49.3832 18.3612 49.3832 18.8144V20.7801L33.1316 32.2717C32.2049 32.9276 30.9769 32.9276 30.0481 32.2717L13.7964 20.7801V18.8144ZM13.7964 22.1135L29.433 33.1691C30.7262 34.0857 32.4534 34.0836 33.7466 33.1691L49.3832 22.1135V44.5237C49.3832 44.9769 49.0159 45.3442 48.5627 45.3442H14.6169C14.1638 45.3442 13.7964 44.9769 13.7964 44.5237V22.1135Z" fill="#0C2A6A"/>
<path fill-rule="evenodd" clip-rule="evenodd" d="M33.1314 32.2716L49.3831 20.78V18.8143C49.3831 18.3611 49.0157 17.9937 48.5625 17.9937H14.6168C14.1636 17.9937 13.7963 18.3611 13.7963 18.8143V20.78L30.0479 32.2716C30.9767 32.9275 32.2047 32.9275 33.1314 32.2716ZM30.2846 31.9364C31.0717 32.4923 32.1099 32.492 32.8944 31.9366L48.9728 20.5677V18.8143C48.9728 18.5877 48.7892 18.404 48.5625 18.404H14.6168C14.3902 18.404 14.2065 18.5877 14.2065 18.8143V20.5677L30.2846 31.9364ZM12.3076 44.7972V18.5408C12.3076 17.4079 13.226 16.4895 14.3589 16.4895H48.8204C49.9533 16.4895 50.8717 17.4079 50.8717 18.5408V44.7972C50.8717 45.9301 49.9533 46.8485 48.8204 46.8485H14.3589C13.226 46.8485 12.3076 45.9301 12.3076 44.7972ZM13.7963 22.1134V44.5236C13.7963 44.9768 14.1636 45.3441 14.6168 45.3441H48.5625C49.0157 45.3441 49.3831 44.9768 49.3831 44.5236V22.1134L33.7465 33.169C32.4533 34.0835 30.7261 34.0856 29.4329 33.169L13.7963 22.1134ZM14.2065 22.9059V44.5236C14.2065 44.7503 14.3902 44.9339 14.6168 44.9339H48.5625C48.7892 44.9339 48.9728 44.7503 48.9728 44.5236V22.9059L33.9834 33.5039C32.5485 34.5186 30.6314 34.5213 29.1957 33.5036L14.2065 22.9059ZM12.7179 18.5408C12.7179 17.6344 13.4526 16.8997 14.3589 16.8997H48.8204C49.7268 16.8997 50.4615 17.6344 50.4615 18.5408V44.7972C50.4615 45.7035 49.7268 46.4382 48.8204 46.4382H14.3589C13.4526 46.4382 12.7179 45.7034 12.7179 44.7972V18.5408Z" fill="#0C2A6A"/>
</g>
</g>
<defs>
<clipPath id="clip0_223_1479">
<rect width="64" height="64" rx="32" fill="white"/>
</clipPath>
</defs>
</svg>
