<svg width="28" height="28" viewBox="0 0 28 28" fill="none" xmlns="http://www.w3.org/2000/svg">
<path d="M4.625 6.5C6.00571 6.5 7.125 5.38071 7.125 4C7.125 2.61929 6.00571 1.5 4.625 1.5C3.24429 1.5 2.125 2.61929 2.125 4C2.125 5.38071 3.24429 6.5 4.625 6.5Z" stroke="#0C2A6A" stroke-width="2.41667"/>
<path d="M2.125 10.25H7.125V25.875H2.125V10.25ZM12.125 16.1875V25.875H16.5V17.125C16.5 15.5625 17.4375 14.3125 19 14.3125C20.5625 14.3125 21.5 15.875 21.5 17.125V25.875H25.875V16.1875C25.875 14.3125 23.6875 10.25 19 10.25C14.3125 10.25 12.125 14.3125 12.125 16.1875Z" stroke="#0C2A6A" stroke-width="2.41667" stroke-linejoin="round"/>
</svg>
