<svg width="101" height="100" viewBox="0 0 101 100" fill="none" xmlns="http://www.w3.org/2000/svg">
<rect x="0.333496" width="100" height="100" rx="50" fill="#2559CA"/>
<path fill-rule="evenodd" clip-rule="evenodd" d="M43.2389 42.3579C43.2109 42.4246 43.1482 42.4702 43.0761 42.4763L25.4297 43.9571C25.2582 43.9715 25.1887 44.1853 25.319 44.2978L38.7248 55.8682C38.7796 55.9154 38.8035 55.9892 38.787 56.0596L34.7424 73.3C34.7031 73.4675 34.8849 73.5996 35.0321 73.5105L50.1788 64.3362C50.2407 64.2988 50.3183 64.2988 50.3801 64.3362L65.5268 73.5105C65.674 73.5996 65.8559 73.4675 65.8166 73.3L61.772 56.0596C61.7554 55.9892 61.7794 55.9154 61.8342 55.8682L75.24 44.2978C75.3702 44.1853 75.3008 43.9715 75.1293 43.9571L57.4829 42.4763C57.4108 42.4702 57.348 42.4246 57.32 42.3579L50.4586 26.0328C50.3919 25.8742 50.1671 25.8742 50.1004 26.0328L43.2389 42.3579ZM59.368 39.7104L53.1448 24.9038C52.0779 22.3654 48.4811 22.3654 47.4142 24.9038L41.191 39.7104L25.186 41.0535C22.4421 41.2838 21.3307 44.7046 23.4152 46.5036L35.574 56.9977L31.9056 72.6344C31.2767 75.3152 34.1865 77.4293 36.5417 76.0028L50.2795 67.6819L64.0173 76.0028C66.3724 77.4293 69.2823 75.3151 68.6534 72.6344L64.985 56.9977L77.1438 46.5036C79.2283 44.7045 78.1168 41.2838 75.373 41.0535L59.368 39.7104Z" fill="white"/>
</svg>
