<svg width="53" height="75" viewBox="0 0 71 100" fill="none" xmlns="http://www.w3.org/2000/svg">
<mask id="mask0_199_552" style="mask-type:alpha" maskUnits="userSpaceOnUse" x="0" y="0" width="71" height="100">
<path d="M70.1956 64.2404C70.1956 83.6244 54.4817 99.3381 35.0977 99.3381C15.7138 99.3381 0 83.6244 0 64.2404C0 44.8565 34.2108 0 35.0977 0C35.9848 0 70.1956 44.8565 70.1956 64.2404Z" fill="#2559CA"/>
</mask>
<g mask="url(#mask0_199_552)">
<path fill-rule="evenodd" clip-rule="evenodd" d="M65.0119 82.6075C68.2994 77.2646 70.1956 70.974 70.1956 64.2404C70.1956 44.8565 35.9848 0 35.0977 0C34.4735 0 17.3397 22.2229 7.24658 42.1446L5.66802 40.3246C4.14815 43.4104 3.29438 46.8835 3.29438 50.556C3.29438 50.631 3.29473 50.706 3.29544 50.7808C1.25704 55.8731 0 60.5248 0 64.2404C0 83.6244 15.7138 99.3381 35.0977 99.3381C41.765 99.3381 47.9979 97.4792 53.3067 94.2512L54.5888 95.7294L67.0321 84.9365L65.0119 82.6075ZM65.0119 82.6075L46.8427 61.6596C48.6448 58.3621 49.6692 54.5787 49.6692 50.556C49.6692 37.75 39.2877 27.3687 26.4817 27.3687C23.8694 27.3687 21.3579 27.8006 19.0149 28.5971L33.0471 44.7752C36.2617 48.4815 35.8631 54.0919 32.1569 57.3067C28.4506 60.5212 22.8402 60.1227 19.6255 56.4165L7.24658 42.1446C5.74885 45.1006 4.40615 48.0062 3.29544 50.7808C3.41613 63.4833 13.7508 73.7433 26.4817 73.7433C29.2385 73.7433 31.8831 73.2623 34.3358 72.3794L53.3067 94.2512C58.0708 91.3544 62.0906 87.355 65.0119 82.6075Z" fill="#2559CA"/>
<path fill-rule="evenodd" clip-rule="evenodd" d="M3.72581 49.9226L12.1639 60.0014L34.971 69.7578L55.6244 83.5689V92.9089C49.8521 97.0774 42.7619 99.5339 35.0977 99.5339C15.7138 99.5339 0 83.8201 0 64.4361C0 60.4655 1.43542 55.4261 3.72581 49.9226Z" fill="#FF7E00"/>
<path fill-rule="evenodd" clip-rule="evenodd" d="M3.29395 50.5559C3.29395 46.8834 4.14772 43.4103 5.66759 40.3245L19.6251 56.4164C22.8397 60.1226 28.4503 60.5212 32.1566 57.3066C35.8628 54.0918 36.2613 48.4814 33.0466 44.7751L19.0145 28.597C21.3574 27.8005 23.8688 27.3687 26.4813 27.3687C39.2874 27.3687 49.6686 37.7499 49.6686 50.5559C49.6686 54.5787 48.6443 58.362 46.8422 61.6595L67.0318 84.9364L54.5882 95.7293L34.3355 72.3793C31.8828 73.2622 29.2382 73.7432 26.4813 73.7432C13.6753 73.7432 3.29395 63.362 3.29395 50.5559Z" fill="white"/>
</g>
</svg>
