<svg width="18" height="34" viewBox="0 0 18 34" fill="none" xmlns="http://www.w3.org/2000/svg">
<path d="M0.788416 3.14497C0.638052 2.98585 0.520502 2.79867 0.442476 2.59412C0.36445 2.38958 0.327477 2.17166 0.333666 1.95283C0.339857 1.73399 0.389091 1.51852 0.478556 1.31871C0.56802 1.1189 0.695963 0.938664 0.855082 0.788301C1.0142 0.637937 1.20138 0.520387 1.40593 0.442361C1.61047 0.364335 1.82838 0.327362 2.04722 0.333552C2.26606 0.339743 2.48153 0.388976 2.68134 0.478441C2.88115 0.567905 3.06139 0.695849 3.21175 0.854967L17.3784 15.855C17.671 16.1644 17.834 16.5741 17.834 17C17.834 17.4258 17.671 17.8355 17.3784 18.145L3.21175 33.1466C3.06238 33.3092 2.88219 33.4405 2.68164 33.5329C2.4811 33.6253 2.2642 33.6769 2.04354 33.6847C1.82288 33.6926 1.60287 33.6565 1.39627 33.5786C1.18968 33.5007 1.00062 33.3825 0.840086 33.2309C0.679552 33.0793 0.550739 32.8973 0.461128 32.6955C0.371517 32.4937 0.322897 32.2761 0.31809 32.0554C0.313282 31.8347 0.352385 31.6152 0.433125 31.4097C0.513865 31.2041 0.634632 31.0167 0.788416 30.8583L13.8751 17L0.788416 3.14497Z" fill="#2559CA"/>
</svg>
