<svg width="26" height="25" viewBox="0 0 26 25" fill="none" xmlns="http://www.w3.org/2000/svg">
<path d="M23.0505 17.0482L19.5156 16.6446C19.1 16.5958 18.6786 16.6418 18.2833 16.7792C17.888 16.9166 17.529 17.1418 17.2332 17.4379L14.6725 19.9986C10.7218 17.9893 7.51057 14.7781 5.50128 10.8274L8.07591 8.25272C8.67433 7.6543 8.96659 6.81928 8.86917 5.97035L8.46558 2.46329C8.38668 1.78439 8.06087 1.15822 7.55018 0.703985C7.03949 0.249753 6.37959 -0.000810319 5.69612 1.96881e-06H3.28849C1.71588 1.96881e-06 0.407694 1.30819 0.505112 2.8808C1.24271 14.7658 10.748 24.2572 22.6191 24.9948C24.1917 25.0922 25.4999 23.784 25.4999 22.2114V19.8038C25.5138 18.3981 24.4561 17.2152 23.0505 17.0482Z" fill="white"/>
</svg>
