<svg width="18" height="34" viewBox="0 0 18 34" fill="none" xmlns="http://www.w3.org/2000/svg">
<path d="M17.2116 3.14497C17.3619 2.98585 17.4795 2.79867 17.5575 2.59412C17.6355 2.38958 17.6725 2.17166 17.6663 1.95283C17.6601 1.73399 17.6109 1.51852 17.5214 1.31871C17.432 1.1189 17.304 0.938664 17.1449 0.788301C16.9858 0.637937 16.7986 0.520387 16.5941 0.442361C16.3895 0.364335 16.1716 0.327362 15.9528 0.333552C15.7339 0.339743 15.5185 0.388976 15.3187 0.478441C15.1188 0.567905 14.9386 0.695849 14.7883 0.854967L0.621587 15.855C0.329026 16.1644 0.166016 16.5741 0.166016 17C0.166016 17.4258 0.329026 17.8355 0.621587 18.145L14.7883 33.1466C14.9376 33.3092 15.1178 33.4405 15.3184 33.5329C15.5189 33.6253 15.7358 33.6769 15.9565 33.6847C16.1771 33.6926 16.3971 33.6565 16.6037 33.5786C16.8103 33.5007 16.9994 33.3825 17.1599 33.2309C17.3204 33.0793 17.4493 32.8973 17.5389 32.6955C17.6285 32.4937 17.6771 32.2761 17.6819 32.0554C17.6867 31.8347 17.6476 31.6152 17.5669 31.4097C17.4861 31.2041 17.3654 31.0167 17.2116 30.8583L4.12492 17L17.2116 3.14497Z" fill="#2559CA"/>
</svg>
