<svg width="101" height="100" viewBox="0 0 101 100" fill="none" xmlns="http://www.w3.org/2000/svg">
<rect x="0.666504" width="100" height="100" rx="50" fill="#2559CA"/>
<path d="M27.6802 30.2566C39.8161 29.8701 48.9239 26.1135 51.1664 25.102C53.4089 26.1135 62.5167 29.8701 74.6526 30.2566C74.2843 49.4449 68.309 60.8615 62.4552 67.4988C57.3033 73.3349 52.4547 75.4476 51.1664 75.9374C49.8781 75.4476 45.0295 73.3349 39.8776 67.4988C34.0238 60.8615 28.0485 49.4449 27.6802 30.2566Z" stroke="white" stroke-width="2"/>
<path d="M62.9522 41C62.5169 41 62.075 41.166 61.7402 41.498L49.2379 53.8961L43.5928 48.298C42.9232 47.634 41.8384 47.634 41.1687 48.298C40.4991 48.9621 40.4991 50.0379 41.1687 50.702L48.0259 57.502C48.3607 57.834 48.796 58 49.2379 58C49.6799 58 50.1152 57.834 50.45 57.502L64.1643 43.902C64.8339 43.2379 64.8339 42.1621 64.1643 41.498C63.8294 41.166 63.3875 41 62.9522 41Z" fill="white"/>
</svg>
